# xmcd
#
# Track frame offsets:
#	150
#	17688
#	37172
#	57157
#	79501
#	98947
#	115942
#	132169
#	150099
#	171742
#	189165
#
# Disc length: 2849 seconds
#
# Revision: 2
# Processed by: cddbd v1.5.2PL0 Copyright (c) Steve Scherf et al.
# Submitted via: Rip'N'TagIt 1.5.0.0 
#
DISCID=840b1f0b
DTITLE=Mariah Carey - Music Box
DYEAR=1993
DGENRE=blues
TTITLE0=Dreamlover
TTITLE1=Hero
TTITLE2=Anytime You Need A Friend
TTITLE3=Music Box
TTITLE4=Now That I Know
TTITLE5=Never Forget You
TTITLE6=Without You
TTITLE7=Just To Hold You Once Again
TTITLE8=IÂ've Been Thinkin About You
TTITLE9=All IÂ've Ever Wanted
TTITLE10=Everything
EXTD=
EXTT0=
EXTT1=
EXTT2=
EXTT3=
EXTT4=
EXTT5=
EXTT6=
EXTT7=
EXTT8=
EXTT9=
EXTT10=
PLAYORDER=
